<?xml version="1.0" standalone="no"?>
<!DOCTYPE svg PUBLIC "-//W3C//DTD SVG 20010904//EN"
 "http://www.w3.org/TR/2001/REC-SVG-20010904/DTD/svg10.dtd">
<svg version="1.0" xmlns="http://www.w3.org/2000/svg"
 width="225.000000pt" height="225.000000pt" viewBox="0 0 225.000000 225.000000"
 preserveAspectRatio="xMidYMid meet">

<g transform="translate(0.000000,225.000000) scale(0.100000,-0.100000)"
fill="#000000" stroke="none">
<path d="M1120 1686 c0 -2 8 -10 18 -17 15 -13 16 -12 3 4 -13 16 -21 21 -21
13z"/>
<path d="M1043 1660 c-13 -10 -23 -21 -23 -24 0 -13 41 -5 46 9 11 26 -1 34
-23 15z"/>
<path d="M971 1611 c-21 -16 -21 -19 -6 -24 32 -13 45 -7 45 18 0 30 -7 31
-39 6z m29 5 c0 -2 -8 -10 -17 -17 -16 -13 -17 -12 -4 4 13 16 21 21 21 13z"/>
<path d="M1220 1599 c0 -17 4 -28 10 -24 6 3 10 17 10 31 0 13 -4 24 -10 24
-5 0 -10 -14 -10 -31z"/>
<path d="M913 1573 c-16 -6 -17 -53 -2 -53 6 0 18 7 26 16 14 13 14 17 2 29
-8 7 -20 11 -26 8z"/>
<path d="M1242 1545 c0 -16 2 -22 5 -12 2 9 2 23 0 30 -3 6 -5 -1 -5 -18z"/>
<path d="M841 1517 c2 -1 13 -9 24 -17 19 -14 19 -14 6 3 -7 9 -18 17 -24 17
-6 0 -8 -1 -6 -3z"/>
<path d="M1220 1490 c0 -18 4 -29 10 -25 6 3 10 15 10 25 0 10 -4 22 -10 25
-6 4 -10 -7 -10 -25z"/>
<path d="M802 1451 c-11 -7 -11 -9 0 -14 9 -3 15 1 15 9 0 8 -1 14 -1 14 -1 0
-7 -4 -14 -9z"/>
<path d="M1242 1435 c0 -16 2 -22 5 -12 2 9 2 23 0 30 -3 6 -5 -1 -5 -18z"/>
<path d="M565 1420 c3 -5 16 -10 28 -10 18 0 19 2 7 10 -20 13 -43 13 -35 0z"/>
<path d="M1220 1382 c0 -18 4 -32 9 -32 5 0 12 -10 14 -22 2 -13 2 -3 0 22 -6
54 -23 79 -23 32z"/>
<path d="M510 1383 c0 -12 3 -14 8 -7 4 7 16 14 27 17 15 4 14 5 -7 6 -21 1
-28 -4 -28 -16z"/>
<path d="M740 1373 c1 -25 2 -26 14 -11 7 10 16 15 20 11 4 -4 4 0 0 10 -10
28 -34 20 -34 -10z"/>
<path d="M450 1325 c0 -32 12 -32 27 0 10 22 9 25 -8 25 -14 0 -19 -7 -19 -25z"/>
<path d="M445 1095 c0 -141 4 -207 13 -222 16 -30 20 -29 14 2 -2 14 -8 25
-13 25 -5 0 -9 14 -9 30 0 17 5 30 10 30 6 0 10 11 10 25 0 14 -4 25 -10 25
-14 0 -13 44 2 76 10 22 10 28 0 32 -15 5 -16 46 0 72 9 14 9 24 1 42 -7 13
-13 32 -15 43 -2 11 -3 -70 -3 -180z"/>
<path d="M740 1265 c0 -14 5 -25 10 -25 6 0 10 11 10 25 0 14 -4 25 -10 25 -5
0 -10 -11 -10 -25z"/>
<path d="M1878 1280 c-1 -5 -36 -43 -77 -84 -54 -55 -67 -73 -50 -69 24 7 49
26 49 38 0 4 11 16 25 27 14 11 25 26 25 34 0 8 7 14 16 14 8 0 22 6 29 14 12
12 12 16 1 25 -9 8 -15 8 -18 1z"/>
<path d="M1240 1201 c0 -11 -5 -21 -11 -23 -6 -2 -9 -17 -7 -33 4 -32 11 -23
23 29 5 23 10 27 28 23 21 -6 21 -6 3 8 -27 20 -36 19 -36 -4z"/>
<path d="M740 1155 c0 -14 4 -25 9 -25 5 0 11 11 13 25 4 17 1 25 -8 25 -8 0
-14 -11 -14 -25z"/>
<path d="M1388 1100 c-3 -16 -1 -30 4 -30 4 0 8 14 8 30 0 17 -2 30 -4 30 -2
0 -6 -13 -8 -30z"/>
<path d="M1242 1095 c0 -16 2 -22 5 -12 2 9 2 23 0 30 -3 6 -5 -1 -5 -18z"/>
<path d="M740 1039 c0 -17 4 -28 10 -24 6 3 10 17 10 31 0 13 -4 24 -10 24 -5
0 -10 -14 -10 -31z"/>
<path d="M1220 1051 c0 -12 5 -21 10 -21 6 0 10 6 10 14 0 8 -4 18 -10 21 -5
3 -10 -3 -10 -14z"/>
<path d="M1643 1038 c-16 -18 -51 -52 -77 -76 -47 -43 -52 -62 -15 -62 14 0
19 7 19 30 0 21 5 30 16 30 18 0 44 23 44 39 0 6 4 11 8 11 12 0 52 39 52 50
0 18 -17 10 -47 -22z"/>
<path d="M1350 983 c0 -23 2 -25 13 -12 6 7 18 20 26 27 12 10 10 12 -12 12
-23 0 -27 -4 -27 -27z"/>
<path d="M740 931 c0 -20 5 -31 14 -31 9 0 12 8 8 25 -7 37 -22 41 -22 6z"/>
<path d="M1220 932 c0 -18 4 -32 9 -32 5 0 12 -10 14 -22 2 -13 2 -7 0 12 -8
69 -23 96 -23 42z"/>
<path d="M1869 942 c-20 -24 -13 -42 17 -42 17 0 24 6 24 19 0 30 -24 43 -41
23z"/>
<path d="M1220 821 c0 -17 5 -31 10 -31 6 0 10 11 10 24 0 14 -4 28 -10 31 -6
4 -10 -7 -10 -24z"/>
<path d="M760 830 c0 -8 5 -22 10 -30 9 -13 10 -13 10 0 0 8 -5 22 -10 30 -9
13 -10 13 -10 0z"/>
<path d="M678 772 c3 -15 7 -21 10 -14 2 6 8 10 13 7 5 -4 6 1 3 9 -3 8 -11
17 -18 19 -9 4 -11 -3 -8 -21z"/>
<path d="M1240 755 c0 -14 -4 -25 -10 -25 -5 0 -10 -14 -10 -32 0 -20 4 -28 9
-22 11 11 26 104 17 104 -3 0 -6 -11 -6 -25z"/>
<path d="M478 758 c5 -5 16 -8 23 -6 8 3 3 7 -10 11 -17 4 -21 3 -13 -5z"/>
<path d="M575 750 c-18 -7 -19 -8 -2 -15 20 -8 47 0 47 15 0 12 -17 12 -45 0z"/>
<path d="M1242 645 c0 -16 2 -22 5 -12 2 9 2 23 0 30 -3 6 -5 -1 -5 -18z"/>
<path d="M1220 589 c0 -18 3 -29 7 -25 10 10 11 46 1 52 -4 3 -8 -9 -8 -27z"/>
<path d="M1242 540 c0 -14 2 -19 5 -12 2 6 2 18 0 25 -3 6 -5 1 -5 -13z"/>
<path d="M1177 493 c6 -15 13 -16 31 -4 10 6 7 10 -11 13 -18 4 -24 1 -20 -9z"/>
<path d="M1075 480 c3 -5 15 -10 26 -10 10 0 19 5 19 10 0 6 -12 10 -26 10
-14 0 -23 -4 -19 -10z"/>
</g>
</svg>
